#!OML:ASF E:\motion texture\Top Level 1\Subject 1\Session 1\male.ASF
:FULLY-SPECIFIED
:DEGREES
303
root -11.6984 17.9827 3.79258 325.968 -86.8619 -327.319
lowerback 4.3831 -4.35744 -2.67075
upperback -1.77765 -5.92682 1.54656
thorax -3.85358 -2.86346 3.52081
lowerneck -19.4004 -2.74689 -5.10004
upperneck 16.3125 -3.72392 6.60215
head 8.4972 -1.40762 2.58711
rclavicle -3.44891e-014 2.06736e-014
rhumerus -54.3033 -1.05364 -64.4278
rradius 43.9373
rwrist 2.27646
rhand -9.0559 -6.92637
rfingers 7.12502
rthumb 16.8926 -36.2117
lclavicle -3.44891e-014 2.06736e-014
lhumerus -11.4946 -19.3386 92.3841
lradius 76.6848
lwrist 5.77499
lhand -10.9832 4.87706
lfingers 7.12502
lthumb 15.0367 34.311
rfemur -55.5402 -6.70437 17.5749
rtibia 68.0477
rfoot 372.198 180.673
rtoes 17.0684
lfemur -5.09294 -6.95332 -26.5897
ltibia 21.8328
lfoot 709.736 1.62938
ltoes 0.512112
304
root -11.8273 18.0091 3.78611 328.035 -86.7975 -329.628
lowerback 4.7265 -4.54436 -2.63724
upperback -1.70026 -6.17723 1.67006
thorax -3.9375 -2.9862 3.67272
lowerneck -19.4857 -2.59545 -4.97425
upperneck 16.3335 -3.5175 6.45845
head 8.50065 -1.31501 2.54465
rclavicle 3.44146e-014 -7.15625e-015
rhumerus -55.3015 -0.877621 -63.2614
rradius 44.5381
rwrist 1.90064
rhand -9.00978 -6.82521
rfingers 7.12502
rthumb 16.937 -36.1067
lclavicle 3.44146e-014 -7.15625e-015
lhumerus -10.5027 -19.6078 91.4106
lradius 77.393
lwrist 6.00947
lhand -11.0343 4.80701
lfingers 7.12502
lthumb 14.9875 34.2446
rfemur -58.322 -6.51791 17.8447
rtibia 67.0111
rfoot 372.109 180.176
rtoes 17.6584
lfemur -4.09434 -7.23078 -26.6086
ltibia 21.3615
lfoot 709.714 1.76006
ltoes -0.0152846
305
root -11.9573 18.0334 3.77891 329.499 -86.7716 -331.283
lowerback 5.00904 -4.70133 -2.60264
upperback -1.63537 -6.38663 1.77982
thorax -4.00407 -3.08911 3.80397
lowerneck -19.5663 -2.45314 -4.84661
upperneck 16.3502 -3.33024 6.34086
head 8.50409 -1.2289 2.50824
rclavicle 4.4975e-015 1.03368e-014
rhumerus -56.2423 -0.734944 -62.1416
rradius 45.0806
rwrist 1.59109
rhand -8.97913 -6.75289
rfingers 7.12502
rthumb 16.9665 -36.0319
lclavicle 4.4975e-015 1.03368e-014
lhumerus -9.56089 -19.8563 90.4196
lradius 78.0144
lwrist 6.28438
lhand -11.0498 4.75638
lfingers 7.12502
lthumb 14.9725 34.1951
rfemur -61.056 -6.24517 18.0669
rtibia 66.2224
rfoot 372.063 179.778
rtoes 18.2559
lfemur -3.1927 -7.46896 -26.6252
ltibia 20.9699
lfoot 709.703 1.89957
ltoes -0.606593
306
root -12.0886 18.056 3.7712 330.022 -86.7552 -331.958
lowerback 5.23177 -4.83422 -2.60193
upperback -1.57588 -6.56554 1.86685
thorax -4.04323 -3.17694 3.92391
lowerneck -19.6419 -2.32061 -4.71364
upperneck 16.3574 -3.16191 6.24108
head 8.50537 -1.14978 2.47446
rclavicle 2.81777e-014 5.56597e-015
rhumerus -57.1149 -0.634805 -61.0674
rradius 45.5543
rwrist 1.33626
rhand -8.93504 -6.69735
rfingers 7.12502
rthumb 17.009 -35.9727
lclavicle 2.81777e-014 5.56597e-015
lhumerus -8.66069 -20.0774 89.4213
lradius 78.5471
lwrist 6.54884
lhand -11.0166 4.72129
lfingers 7.12502
lthumb 15.0045 34.1577
rfemur -63.7227 -5.92771 18.204
rtibia 65.6774
rfoot 372.068 179.525
rtoes 18.901
lfemur -2.37203 -7.69638 -26.6931
ltibia 20.6574
lfoot 709.698 2.06249
ltoes -1.2332
307
root -12.2206 18.0771 3.76294 330.029 -86.7569 -332.082
lowerback 5.41488 -4.94525 -2.6156
upperback -1.52238 -6.71587 1.94245
thorax -4.06775 -3.25068 4.03507
lowerneck -19.7258 -2.19896 -4.58524
upperneck 16.3649 -3.01098 6.1588
head 8.51005 -1.07728 2.44512
rclavicle -6.26172e-015 -9.54166e-015
rhumerus -57.9138 -0.577653 -60.0358
rradius 45.9532
rwrist 1.1151
rhand -8.86145 -6.65989
rfingers 7.12502
rthumb 17.0798 -35.9291
lclavicle -6.26172e-015 -9.54166e-015
lhumerus -7.80052 -20.268 88.4366
lradius 78.9838
lwrist 6.76709
lhand -10.9683 4.69339
lfingers 7.12502
lthumb 15.051 34.1263
rfemur -66.3049 -5.58129 18.2938
rtibia 65.3729
rfoot 372.127 179.453
rtoes 19.6427
lfemur -1.62901 -7.92135 -26.7834
ltibia 20.4232
lfoot 709.7 2.25441
ltoes -1.87743
308
root -12.3531 18.0971 3.75445 329.822 -86.7743 -331.984
lowerback 5.58352 -5.039 -2.62475
upperback -1.46889 -6.84288 2.00794
thorax -4.08731 -3.3132 4.13071
lowerneck -19.8133 -2.08823 -4.46361
upperneck 16.3725 -2.87716 6.09437
head 8.51715 -1.01142 2.42077
rclavicle 1.55301e-014 1.43125e-014
rhumerus -58.6426 -0.561338 -59.0545
rradius 46.2806
rwrist 0.910761
rhand -8.75401 -6.63494
rfingers 7.12502
rthumb 17.1832 -35.8952
lclavicle 1.55301e-014 1.43125e-014
lhumerus -6.99068 -20.4267 87.4786
lradius 79.3288
lwrist 6.90938
lhand -10.8964 4.66225
lfingers 7.12502
lthumb 15.1203 34.0899
rfemur -68.7679 -5.2328 18.3638
rtibia 65.2879
rfoot 372.221 179.558
rtoes 20.4461
lfemur -0.934922 -8.14697 -26.8835
ltibia 20.2603
lfoot 709.703 2.47095
ltoes -2.50579
309
root -12.4854 18.1163 3.74618 329.713 -86.8107 -331.999
lowerback 5.76679 -5.11961 -2.61457
upperback -1.40645 -6.95134 2.06997
thorax -4.10962 -3.36708 4.21231
lowerneck -19.9142 -1.98952 -4.35563
upperneck 16.3832 -2.75928 6.04642
head 8.52927 -0.952014 2.40228
rclavicle -9.39258e-015 1.43125e-014
rhumerus -59.2808 -0.586518 -58.1241
rradius 46.5209
rwrist 0.724046
rhand -8.61149 -6.61081
rfingers 7.12502
rthumb 17.3204 -35.859
lclavicle -9.39258e-015 1.43125e-014
lhumerus -6.23216 -20.5454 86.5627
lradius 79.583
lwrist 6.96491
lhand -10.846 4.63766
lfingers 7.12502
lthumb 15.1688 34.0617
rfemur -71.0626 -4.89345 18.4379
rtibia 65.4204
rfoot 372.354 179.786
rtoes 21.2113
lfemur -0.256213 -8.36912 -26.9767
ltibia 20.1581
lfoot 709.7 2.71081
ltoes -3.12055
310
root -12.6179 18.1348 3.73797 329.984 -86.8674 -332.427
lowerback 5.98284 -5.18983 -2.57401
upperback -1.3303 -7.04418 2.13319
thorax -4.1406 -3.41389 4.2805
lowerneck -20.0175 -1.90133 -4.25838
upperneck 16.3859 -2.65556 6.01303
head 8.54052 -0.898461 2.38863
rclavicle 3.00662e-014 2.38542e-015
rhumerus -59.829 -0.641883 -57.2554
rradius 46.6857
rwrist 0.54283
rhand -8.46211 -6.58959
rfingers 7.12502
rthumb 17.4642 -35.8251
lclavicle 3.00662e-014 2.38542e-015
lhumerus -5.53292 -20.6207 85.7058
lradius 79.7517
lwrist 6.93764
lhand -10.8021 4.61299
lfingers 7.12502
lthumb 15.2111 34.0338
rfemur -73.154 -4.57456 18.5407
rtibia 65.7548
rfoot 372.507 180.066
rtoes 21.8126
lfemur 0.431077 -8.57709 -27.044
ltibia 20.1063
lfoot 709.7 2.95819
ltoes -3.73349
311
root -12.7503 18.1527 3.72976 330.804 -86.9477 -333.445
lowerback 6.24366 -5.25173 -2.49686
upperback -1.24154 -7.12365 2.19912
thorax -4.18861 -3.45466 4.33512
lowerneck -20.1097 -1.82174 -4.17524
upperneck 16.3752 -2.56348 5.99844
head 8.54652 -0.849618 2.3821
rclavicle -3.10104e-014 1.35174e-014
rhumerus -60.2864 -0.720776 -56.46
rradius 46.7747
rwrist 0.374562
rhand -8.33868 -6.57201
rfingers 7.12502
rthumb 17.5829 -35.7969
lclavicle -3.10104e-014 1.35174e-014
lhumerus -4.92155 -20.6487 84.923
lradius 79.8563
lwrist 6.84996
lhand -10.7648 4.58972
lfingers 7.12502
lthumb 15.247 34.0078
rfemur -75.0142 -4.27245 18.6818
rtibia 66.2822
rfoot 372.673 180.324
rtoes 22.1975
lfemur 1.13656 -8.75833 -27.0697
ltibia 20.0931
lfoot 709.708 3.19616
ltoes -4.32873
312
root -12.8825 18.17 3.72132 332.118 -87.0465 -334.993
lowerback 6.54193 -5.30717 -2.39623
upperback -1.13674 -7.1929 2.26701
thorax -4.2443 -3.49096 4.3818
lowerneck -20.1946 -1.74901 -4.09624
upperneck 16.347 -2.48106 5.9929
head 8.54609 -0.804859 2.3779
rclavicle 3.95581e-014 7.15625e-015
rhumerus -60.6435 -0.822522 -55.7466
rradius 46.7931
rwrist 0.235197
rhand -8.26117 -6.55981
rfingers 7.12502
rthumb 17.6575 -35.778
lclavicle 3.95581e-014 7.15625e-015
lhumerus -4.39605 -20.6275 84.2168
lradius 79.9088
lwrist 6.74013
lhand -10.719 4.56157
lfingers 7.12502
lthumb 15.2911 33.9763
rfemur -76.6327 -3.98574 18.8523
rtibia 66.9932
rfoot 372.846 180.494
rtoes 22.3357
lfemur 1.85878 -8.9026 -27.0567
ltibia 20.1139
lfoot 709.727 3.40754
ltoes -4.90716
